<?xml version="1.0" encoding="UTF-8" standalone="no"?>
<!-- Created with Inkscape (http://www.inkscape.org/) -->

<svg
   width="255.99998"
   height="255.99998"
   viewBox="0 0 67.73333 67.73333"
   version="1.1"
   id="svg246"
   inkscape:version="1.2.2 (732a01da63, 2022-12-09)"
   sodipodi:docname="rain.svg"
   xmlns:inkscape="http://www.inkscape.org/namespaces/inkscape"
   xmlns:sodipodi="http://sodipodi.sourceforge.net/DTD/sodipodi-0.dtd"
   xmlns:xlink="http://www.w3.org/1999/xlink"
   xmlns="http://www.w3.org/2000/svg"
   xmlns:svg="http://www.w3.org/2000/svg">
  <sodipodi:namedview
     id="namedview248"
     pagecolor="#ffffff"
     bordercolor="#666666"
     borderopacity="1.0"
     inkscape:showpageshadow="2"
     inkscape:pageopacity="0.0"
     inkscape:pagecheckerboard="0"
     inkscape:deskcolor="#d1d1d1"
     inkscape:document-units="px"
     showgrid="false"
     inkscape:zoom="1.0529882"
     inkscape:cx="220.32535"
     inkscape:cy="188.98597"
     inkscape:window-width="1366"
     inkscape:window-height="745"
     inkscape:window-x="-8"
     inkscape:window-y="-8"
     inkscape:window-maximized="1"
     inkscape:current-layer="layer1" />
  <defs
     id="defs243">
    <linearGradient
       inkscape:collect="always"
       xlink:href="#linearGradient427"
       id="linearGradient791"
       gradientUnits="userSpaceOnUse"
       x1="89.451775"
       y1="47.238579"
       x2="5.0253806"
       y2="135.68527"
       gradientTransform="matrix(0.80605804,0,0,0.80605804,17.468244,120.80856)" />
    <linearGradient
       inkscape:collect="always"
       id="linearGradient427">
      <stop
         style="stop-color:#dbdee3;stop-opacity:1;"
         offset="0"
         id="stop423" />
      <stop
         style="stop-color:#ffffff;stop-opacity:1"
         offset="1"
         id="stop425" />
    </linearGradient>
    <linearGradient
       inkscape:collect="always"
       xlink:href="#linearGradient427"
       id="linearGradient793"
       gradientUnits="userSpaceOnUse"
       x1="61.560913"
       y1="29.147209"
       x2="103.52284"
       y2="57.038071"
       gradientTransform="matrix(0.80605804,0,0,0.80605804,17.468244,120.80856)" />
  </defs>
  <g
     inkscape:label="Layer 1"
     inkscape:groupmode="layer"
     id="layer1"
     transform="translate(-46.842556,-134.17766)">
    <path
       style="fill:url(#linearGradient791);fill-opacity:1;stroke:none;stroke-width:0.213269px;stroke-linecap:butt;stroke-linejoin:miter;stroke-opacity:1"
       d="M 93.720924,176.30381 H 53.342228 c -8.591998,0.0331 -8.740143,-15.75932 0,-15.79792 h 6.116304 c -0.304343,-26.66426 34.316696,-26.01155 34.584356,-5.11847 H 105.4037 c 12.54687,0.18812 11.90813,21.00194 0,20.89492 z"
       id="path67-7"
       sodipodi:nodetypes="cccccccc" />
    <path
       id="path360-3"
       style="fill:url(#linearGradient793);fill-opacity:1;stroke:none;stroke-width:0.0533174;stroke-linecap:round;stroke-linejoin:round;paint-order:fill markers stroke"
       d="m 93.988616,155.34838 c 0,0 -34.433977,5.34335 -34.616017,5.04835 -0.881167,-10.77609 7.49085,-19.99373 17.232803,-20.35431 9.581967,-0.35468 17.948833,5.97318 17.383214,15.30596 z"
       sodipodi:nodetypes="ccsc" />
    <path
       style="fill:#0066ff;stroke:#0066ff;stroke-width:0.213269px;stroke-linecap:butt;stroke-linejoin:miter;stroke-opacity:1"
       d="m 68.710201,185.33619 c -0.942806,-0.5006 -1.094111,-2.2192 -0.572858,-3.15075 0.77762,-1.3897 3.723593,-2.86431 3.723593,-2.86431 0,0 0.162494,3.15927 -0.436843,4.60028 -0.56503,1.35853 -1.869208,1.86329 -2.713892,1.41478 z"
       id="path878"
       sodipodi:nodetypes="sscss" />
    <path
       style="fill:#0066ff;stroke:#0066ff;stroke-width:0.213269px;stroke-linecap:butt;stroke-linejoin:miter;stroke-opacity:1"
       d="m 88.0426,187.89821 c -0.942806,-0.50061 -1.094111,-2.2192 -0.572858,-3.15074 0.777621,-1.3897 3.723594,-2.86431 3.723594,-2.86431 0,0 0.162493,3.15926 -0.436844,4.60027 -0.56503,1.35853 -1.869208,1.86329 -2.713892,1.41478 z"
       id="path878-0"
       sodipodi:nodetypes="sscss" />
    <path
       style="fill:#0066ff;stroke:#0066ff;stroke-width:0.213269px;stroke-linecap:butt;stroke-linejoin:miter;stroke-opacity:1"
       d="m 73.459906,195.99971 c -0.942806,-0.50061 -1.094111,-2.2192 -0.572858,-3.15075 0.77762,-1.3897 3.723593,-2.86431 3.723593,-2.86431 0,0 0.162494,3.15927 -0.436843,4.60028 -0.56503,1.35853 -1.869208,1.86329 -2.713892,1.41478 z"
       id="path878-4"
       sodipodi:nodetypes="sscss" />
  </g>
</svg>
